<svg width="36" height="36" viewBox="0 0 36 36" fill="none" xmlns="http://www.w3.org/2000/svg">
<rect x="0.5" y="0.5" width="35" height="35" rx="3.5" fill="white"/>
<rect x="0.5" y="0.5" width="35" height="35" rx="3.5" stroke="#DDE1E8"/>
<path d="M14.4227 9.91075C14.0972 9.58531 13.5696 9.58531 13.2442 9.91075L9.91083 13.2441C9.58539 13.5695 9.58539 14.0972 9.91083 14.4226C10.2363 14.748 10.7639 14.748 11.0893 14.4226L13.0001 12.5118L13.0001 23.8333C13.0001 24.2936 13.3732 24.6667 13.8334 24.6667C14.2937 24.6667 14.6667 24.2936 14.6667 23.8333L14.6667 12.5119L16.5775 14.4226C16.9029 14.748 17.4306 14.748 17.756 14.4226C18.0814 14.0972 18.0814 13.5695 17.756 13.2441L14.4227 9.91075Z" fill="#323439"/>
<path d="M23.0001 23.4882L23.0001 12.1667C23.0001 11.7064 22.627 11.3333 22.1667 11.3333C21.7065 11.3333 21.3334 11.7064 21.3334 12.1667L21.3334 23.4882L19.4227 21.5774C19.0972 21.252 18.5696 21.252 18.2442 21.5774C17.9187 21.9029 17.9187 22.4305 18.2442 22.7559L21.5775 26.0893C21.9029 26.4147 22.4306 26.4147 22.756 26.0893L26.0893 22.7559C26.4148 22.4305 26.4148 21.9029 26.0893 21.5774C25.7639 21.252 25.2363 21.252 24.9108 21.5774L23.0001 23.4882Z" fill="#323439"/>
</svg>
