<svg width="20" height="20" viewBox="0 0 20 20" fill="none" xmlns="http://www.w3.org/2000/svg">
<path fill-rule="evenodd" clip-rule="evenodd" d="M5.35398 7.4655C4.90406 7.96078 4.92587 8.71868 5.39292 9.1875L2.91452 9.19192C2.22503 9.19315 1.66675 9.75243 1.66675 10.4419V15.4156C1.66675 15.6457 1.8533 15.8323 2.08341 15.8323H3.33342L3.33341 15.8333V17.0833C3.33341 17.3134 3.51996 17.5 3.75008 17.5C3.9802 17.5 4.16675 17.3134 4.16675 17.0833V15.8333L4.16675 15.8323H15.8334L15.8334 15.8333V17.082C15.8334 17.3122 16.02 17.4987 16.2501 17.4987C16.4802 17.4987 16.6667 17.3122 16.6667 17.082V15.8333L16.6667 15.8323H17.9167C18.1469 15.8323 18.3334 15.6457 18.3334 15.4156L18.3334 10.4144C18.3322 9.72408 17.7715 9.16543 17.0812 9.16666L16.6667 9.1674L16.6667 9.16508V4.58333C16.6667 3.89297 16.1071 3.33333 15.4167 3.33333H4.58341C3.89306 3.33333 3.33341 3.89297 3.33341 4.58333V6.24999C3.33341 6.48011 3.51996 6.66666 3.75008 6.66666C3.9802 6.66666 4.16675 6.48011 4.16675 6.24999V4.58333C4.16675 4.35321 4.3533 4.16666 4.58341 4.16666H15.4167C15.6469 4.16666 15.8334 4.35321 15.8334 4.58333V9.16508L15.8334 9.16889L14.6598 9.17098C15.1279 8.67396 15.1107 7.89152 14.6184 7.41557L13.3809 6.18855C12.8877 5.71168 12.1096 5.7172 11.6269 6.19727L10.3978 7.4197C10.3866 7.43094 10.381 7.4366 10.3756 7.44232C10.3701 7.44805 10.3647 7.45386 10.354 7.4655C9.9069 7.95765 9.92561 8.70914 10.3841 9.1786L9.65133 9.17991C10.128 8.68338 10.1137 7.89438 9.61838 7.41557L8.38093 6.18855C7.8877 5.71168 7.10959 5.7172 6.62689 6.19727L5.39775 7.4197C5.38662 7.43097 5.38105 7.4366 5.37558 7.44232C5.37011 7.44805 5.36473 7.45386 5.35398 7.4655ZM8.44055 9.18207L6.62636 9.1853C6.62047 9.17927 6.61437 9.17338 6.60805 9.16764L5.99905 8.61441C5.82872 8.45968 5.81607 8.19616 5.97081 8.02583L5.97801 8.01811L5.9854 8.01057L7.21453 6.78813C7.37543 6.62811 7.6348 6.62627 7.79796 6.784L9.03541 8.01101C9.20462 8.17465 9.20908 8.43843 9.04914 8.60387C9.04928 8.60372 9.03645 8.61539 9.01275 8.63694L9.01056 8.63894C8.93335 8.70915 8.74756 8.8781 8.52008 9.0844C8.48795 9.11354 8.46142 9.14655 8.44055 9.18207ZM13.4459 9.17314C13.4659 9.14101 13.4907 9.11109 13.5201 9.0844C13.7483 8.8774 13.9346 8.70799 14.0114 8.63822C14.0357 8.61606 14.0493 8.60372 14.0491 8.60387C14.2091 8.43843 14.2046 8.17465 14.0354 8.01101L12.798 6.784C12.6348 6.62627 12.3754 6.62811 12.2145 6.78813L10.9854 8.01057L10.978 8.01811L10.9708 8.02583C10.8161 8.19616 10.8287 8.45968 10.9991 8.61441L11.608 9.16764L11.6174 9.1764L13.4459 9.17314ZM14.5834 11.6667H2.50008V10.4419C2.50008 10.2121 2.68618 10.0257 2.91601 10.0253L17.0827 10C17.3128 9.99959 17.4997 10.1858 17.5001 10.4167V14.9989H2.50008V12.5H14.5834C14.8135 12.5 15.0001 12.3134 15.0001 12.0833C15.0001 11.8532 14.8135 11.6667 14.5834 11.6667Z" fill="#ED1C24"/>
</svg>
