<svg width="24" height="24" viewBox="0 0 24 24" fill="none" xmlns="http://www.w3.org/2000/svg">
<path fill-rule="evenodd" clip-rule="evenodd" d="M8.00115 1C8.55343 1 9.00115 1.44772 9.00115 2V5C9.00115 5.55228 8.55343 6 8.00115 6C7.44886 6 7.00115 5.55228 7.00115 5V2C7.00115 1.44772 7.44886 1 8.00115 1ZM16.0011 1C16.5534 1 17.0011 1.44772 17.0011 2V5C17.0011 5.55228 16.5534 6 16.0011 6C15.4489 6 15.0011 5.55228 15.0011 5V2C15.0011 1.44772 15.4489 1 16.0011 1ZM2.00115 10C2.00115 9.44772 2.44886 9 3.00115 9L21.0105 9C21.5628 9 22.0105 9.44772 22.0105 10C22.0105 10.5523 21.5628 11 21.0105 11L3.00115 11C2.44886 11 2.00115 10.5523 2.00115 10ZM6.99175 14C6.99175 13.4477 7.43946 13 7.99175 13H8.00073C8.55302 13 9.00073 13.4477 9.00073 14C9.00073 14.5523 8.55302 15 8.00073 15H7.99175C7.43946 15 6.99175 14.5523 6.99175 14ZM10.9957 14C10.9957 13.4477 11.4434 13 11.9957 13H12.0046C12.5569 13 13.0046 13.4477 13.0046 14C13.0046 14.5523 12.5569 15 12.0046 15H11.9957C11.4434 15 10.9957 14.5523 10.9957 14ZM14.9957 14C14.9957 13.4477 15.4434 13 15.9957 13H16.0046C16.5569 13 17.0046 13.4477 17.0046 14C17.0046 14.5523 16.5569 15 16.0046 15H15.9957C15.4434 15 14.9957 14.5523 14.9957 14ZM6.99566 18C6.99566 17.4477 7.44337 17 7.99566 17H8.00464C8.55692 17 9.00464 17.4477 9.00464 18C9.00464 18.5523 8.55692 19 8.00464 19H7.99566C7.44337 19 6.99566 18.5523 6.99566 18ZM10.9957 18C10.9957 17.4477 11.4434 17 11.9957 17H12.0046C12.5569 17 13.0046 17.4477 13.0046 18C13.0046 18.5523 12.5569 19 12.0046 19H11.9957C11.4434 19 10.9957 18.5523 10.9957 18ZM14.9966 18.001C14.9966 17.4487 15.4444 17.001 15.9966 17.001H16.0056C16.5579 17.001 17.0056 17.4487 17.0056 18.001C17.0056 18.5533 16.5579 19.001 16.0056 19.001H15.9966C15.4444 19.001 14.9966 18.5533 14.9966 18.001Z" fill="#323439"/>
<path fill-rule="evenodd" clip-rule="evenodd" d="M1 6.00344C1 3.79177 2.79292 1.99885 5.00459 1.99885H18.9977C21.2094 1.99885 23.0023 3.79177 23.0023 6.00344V18.9966C23.0023 21.2082 21.2094 23.0011 18.9977 23.0011H5.00459C2.79292 23.0011 1 21.2082 1 18.9966V6.00344ZM5.00459 4.00115C3.89875 4.00115 3.0023 4.89761 3.0023 6.00344V18.9966C3.0023 20.1024 3.89875 20.9989 5.00459 20.9989H18.9977C20.1035 20.9989 21 20.1024 21 18.9966V6.00344C21 4.89761 20.1035 4.00115 18.9977 4.00115H5.00459Z" fill="#323439"/>
</svg>
