<svg width="24" height="24" viewBox="0 0 24 24" fill="none" xmlns="http://www.w3.org/2000/svg">
<path d="M22.1998 11.9998C22.1998 11.2896 21.6219 10.7153 20.9107 10.7153H6.20255L9.94075 6.99289C10.4446 6.4912 10.4446 5.67743 9.94075 5.17573C9.43739 4.6745 8.62163 4.6745 8.11827 5.17573L2.17768 11.0912C1.93583 11.332 1.7998 11.6589 1.7998 11.9998C1.7998 12.3408 1.93583 12.6676 2.17768 12.9084L8.11827 18.8239C8.62163 19.3251 9.43739 19.3251 9.94075 18.8239C10.4446 18.3222 10.4446 17.5084 9.94075 17.0067L6.20255 13.2843L20.9107 13.2843C21.6219 13.2843 22.1998 12.71 22.1998 11.9998Z" fill="white"/>
</svg>
