<svg width="24" height="24" viewBox="0 0 24 24" fill="none" xmlns="http://www.w3.org/2000/svg">
<path d="M8 2C6.34315 2 5 3.34315 5 5V10.1707C3.83481 10.5825 3 11.6938 3 13V22C3 22.5523 3.44772 23 4 23C4.55229 23 5 22.5523 5 22L5 19H19V22C19 22.5523 19.4477 23 20 23C20.5523 23 21 22.5523 21 22V13C21 11.6938 20.1652 10.5825 19 10.1707V5C19 3.34315 17.6569 2 16 2H8ZM8 10H7V5C7 4.44772 7.44772 4 8 4H16C16.5523 4 17 4.44772 17 5V10H16V8C16 6.89543 15.1046 6 14 6H10C8.89543 6 8 6.89543 8 8V10ZM10 10V8H14V10H10ZM6 12H18C18.5523 12 19 12.4477 19 13V17H5V13C5 12.4477 5.44772 12 6 12Z" fill="#323439"/>
</svg>
