<svg width="20" height="20" viewBox="0 0 20 20" fill="none" xmlns="http://www.w3.org/2000/svg">
<path d="M17.602 11.6666C17.8018 11.4651 17.846 11.4205 18.2328 11.0305C18.3905 10.8674 18.3887 10.608 18.2266 10.445L16.9738 9.16785L11.5007 9.16658C11.3306 9.16654 11.1776 9.06315 11.1142 8.90537L9.28864 4.36405C9.23235 4.24362 9.11143 4.16666 8.9785 4.16666H8.7028C8.51045 4.16666 8.34847 4.32374 8.34847 4.50395L8.34846 4.50643L8.34847 8.74991C8.34847 8.98003 8.16192 9.16658 7.9318 9.16658H3.80389C3.67517 9.16658 3.55368 9.10709 3.47475 9.00541L2.43708 7.66863C2.35815 7.56695 2.23666 7.50746 2.10794 7.50746H1.24992C1.0198 7.50746 0.833252 7.32091 0.833252 7.09079C0.833252 6.86068 1.0198 6.67413 1.24992 6.67413H2.10794C2.4941 6.67413 2.85857 6.8526 3.09536 7.15764L4.00792 8.33324H7.51513L7.51514 4.51138L7.51513 4.50395C7.51513 3.85767 8.05585 3.33333 8.7028 3.33333H8.9785C9.43502 3.33333 9.85027 3.59761 10.0527 4.03216L11.7823 8.33331L17.1139 8.33455C17.2331 8.32515 17.355 8.36645 17.4449 8.45813L18.8195 9.85944C19.2996 10.3421 19.3051 11.1203 18.8282 11.6135L18.1077 12.3401C18.1001 12.3478 18.0923 12.3551 18.0843 12.3621C18.008 12.4467 17.8975 12.4999 17.7746 12.4999H11.9747L10.0518 16.0339C9.85402 16.4161 9.46325 16.6598 9.033 16.6691L8.71867 16.6759C8.70452 16.6761 8.70452 16.6761 8.69036 16.6762C8.04749 16.6745 7.51342 16.152 7.51513 15.5108V12.4999H2.93165C2.53906 12.4999 2.16929 12.3155 1.93312 12.0019L0.937029 10.6792C0.798597 10.4953 0.835394 10.2341 1.01922 10.0957C1.20304 9.95724 1.46428 9.99403 1.60271 10.1779L2.5988 11.5006C2.67753 11.6051 2.80079 11.6666 2.93165 11.6666H7.9318C8.16192 11.6666 8.34847 11.8531 8.34847 12.0832L8.34846 15.5119C8.34799 15.6888 8.50493 15.8423 8.69258 15.8428C8.6966 15.8428 8.6966 15.8428 8.70061 15.8428L9.01494 15.8359C9.14023 15.8332 9.25401 15.7623 9.31567 15.6433L11.361 11.8841C11.434 11.75 11.5744 11.6666 11.727 11.6666H17.602Z" fill="#ED1C24"/>
</svg>
