<svg width="24" height="24" viewBox="0 0 24 24" fill="none" xmlns="http://www.w3.org/2000/svg">
<path fill-rule="evenodd" clip-rule="evenodd" d="M12 4.99477C9.23858 4.99477 7 7.23042 7 9.98824C7 12.7461 9.23858 14.9817 12 14.9817C14.7614 14.9817 17 12.7461 17 9.98824C17 7.23042 14.7614 4.99477 12 4.99477ZM9 9.98824C9 8.33355 10.3431 6.99216 12 6.99216C13.6569 6.99216 15 8.33355 15 9.98824C15 11.6429 13.6569 12.9843 12 12.9843C10.3431 12.9843 9 11.6429 9 9.98824Z" fill="#323439"/>
<path fill-rule="evenodd" clip-rule="evenodd" d="M12 1C9.31866 1 7.05404 1.91666 5.4574 3.51197C3.86294 5.1051 3 7.30997 3 9.7663C3 12.5525 4.54956 15.2932 6.19644 17.4474C7.86784 19.6336 9.7821 21.6985 10.7429 22.529C11.4797 23.1658 12.5568 23.1546 13.2814 22.509C14.2358 21.6585 16.127 19.5495 17.798 17.3507C19.4399 15.1904 21 12.46 21 9.76626C21 4.74974 17.097 1 12 1ZM5 9.7663C5 7.78394 5.68996 6.105 6.87195 4.924C8.05175 3.74519 9.78713 2.99739 12 2.99739C16.0459 2.99739 19 5.90554 19 9.76627C19 11.7706 17.7946 14.0515 16.2049 16.1431C14.6727 18.1593 12 20.9739 12 20.9739C12 20.9739 9.31105 18.23 7.78607 16.2353C6.20767 14.1707 5 11.8737 5 9.7663Z" fill="#323439"/>
</svg>
