<svg width="24" height="24" viewBox="0 0 24 24" fill="none" xmlns="http://www.w3.org/2000/svg">
<path fill-rule="evenodd" clip-rule="evenodd" d="M12 2C9.23858 2 7 4.23858 7 7C7 9.76142 9.23858 12 12 12C14.7614 12 17 9.76142 17 7C17 4.23858 14.7614 2 12 2ZM9 7C9 5.34315 10.3431 4 12 4C13.6569 4 15 5.34315 15 7C15 8.65685 13.6569 10 12 10C10.3431 10 9 8.65685 9 7Z" fill="#323439"/>
<path fill-rule="evenodd" clip-rule="evenodd" d="M12 13C6.7256 13 2 16.3624 2 21C2 21.5523 2.44772 22 3 22H21C21.5523 22 22 21.5523 22 21C22 16.3624 17.2744 13 12 13ZM12 15C16.1589 15 19.2587 17.3076 19.8842 20H4.11584C4.74126 17.3076 7.84112 15 12 15Z" fill="#323439"/>
</svg>
